<?xml version="1.0" encoding="utf-8"?>
<!-- Generator: Adobe Illustrator 19.2.1, SVG Export Plug-In . SVG Version: 6.00 Build 0)  -->
<svg version="1.1" id="Layer_1" xmlns="http://www.w3.org/2000/svg" xmlns:xlink="http://www.w3.org/1999/xlink" x="0px" y="0px"
	 viewBox="0 0 644.2 223" style="enable-background:new 0 0 644.2 223;" xml:space="preserve">
<style type="text/css">
	.st0{fill:#FFFFFF;}
</style>
<path class="st0" d="M399.4,8.5C410.1,5.9,417,3,420.1,0l2.6,1.2L478,157.9c2.5,7.4,5.2,12.1,8.1,14c3.3,2.4,10.5,4.4,21.7,6v2.1
	c-16.3-1.5-29.8-2.2-40.5-2.2c-10.5,0-23.9,0.7-40.2,2.2v-2.1c10.7-1.7,17.9-3.3,21.4-4.8c3.9-1.6,5.8-4,5.8-7.1
	c0-1.7-0.6-4.4-1.8-8.1L399.4,8.5z M359.9,140.5c-2.1,5.8-4,11.2-4,16c0,11.8,7.5,19,22.5,21.4v2.1c-10.3-1.5-20.7-2.2-29.3-2.2
	c-7.5,0-17,0.7-28.4,2.2v-2.1c8.9-1.2,16.1-4.8,21.8-10.6c5.6-5.7,10.5-14.7,14.9-26.8H359.9z M153.1,174.7c5.2,0,9.7-1.1,13.7-3.4
	c3.9-2.3,8.7-6.7,14.6-13.3l1.7,1.9c-6.9,16.1-15.1,25.3-24.9,31c-5.7,3.3-12.1,5-19.3,5.2c-7.5-0.2-14.3-0.6-24.1-4.6
	c-10.6-4.3-17.2-6.3-20.4-6.3c-3.4,0-6.6,0.9-9.4,2.5l-1.1-1.3c6-4.6,12.5-9.4,19.1-14.2c4.6-3.3,9.5-4.9,14.8-4.9
	c4.7,0,11.1,1.4,19.2,4.2C143,173.7,148.4,174.7,153.1,174.7 M130.9,28.4c-6.7-14-17.6-22.1-32.5-25V1.3
	c20.8,3.4,37.8,13.2,50.7,29.4c13.1,16.5,19.7,37.2,19.7,60.4c0,18.6-4.2,35.9-12.7,50.5c-25.8,6.6-48.6,18.5-69.2,34.4l-55.1,47
	l-1.2-1.5l56.1-48.4c22.6-19.4,37.7-33.5,44.3-43.6c6.6-9.9,9.8-23.2,9.8-38.4C140.7,63.2,137.5,42.3,130.9,28.4 M62.5,177.8
	c-19.6-4.1-34.9-13.6-46-28.5C5.5,134.3,0,114.7,0,92.1c0-23.2,6.6-44.8,19.7-61.3c13-16.2,30-26,50.7-29.4v2.1
	c-14.9,2.9-25.7,11-32.4,25c-6.6,13.9-10,34.8-10,62.8c0,51,13.3,79.8,36.6,84.8L62.5,177.8z M279.2,178.1
	c-15.5-0.1-26.6-5.8-33.3-17.1c-6.6-11.2-9.8-29.6-9.8-55.4V23.1c0-7.5,1.4-12.1,4.2-14c2.7-1.9,10.7-3.8,24-5.7V1.3
	c-17.4,1.5-30.8,2.2-40.4,2.2c-9.5,0-23-0.7-40.4-2.2v2.1c13.3,1.9,21.3,3.8,24,5.7c2.8,1.9,4.2,6.6,4.2,14v83.4
	c0,25.6,5.4,44.3,16.2,56.1c10.8,11.7,27.9,17.5,51.3,17.3L279.2,178.1L279.2,178.1z M330.1,40.8c4.3-12.1,9.3-21.1,14.9-26.8
	c5.7-5.8,12.9-9.4,21.8-10.6V1.3c-11.4,1.5-20.9,2.2-28.4,2.2c-8.6,0-19-0.7-29.3-2.2v2.1c15,2.5,22.5,9.6,22.5,21.4
	c0,4.8-1.9,10.2-4,16L330.1,40.8L330.1,40.8z M644.2,3.4c-8.9,1.4-14.7,3-17.2,4.8s-5.8,6.7-10.1,14.6l-38.6,72.8v62.6
	c0,7.5,1.4,12.1,4.2,14c2.7,1.9,10.7,3.8,24,5.7v2.1c-17.4-1.5-30.8-2.2-40.4-2.2c-9.5,0-23,0.7-40.4,2.2v-2.1
	c13.3-1.9,21.3-3.8,24-5.7c2.8-1.9,4.2-6.6,4.2-14V91.5l36.5-68.7c3.4-6.5,5.2-10.6,5.2-12.4c0-1.6-1.6-2.8-4.9-3.8
	c-0.5-0.2-5.5-1.2-14.9-3.2V1.3c14.5,1.5,26.3,2.2,35.4,2.2c10.8,0,21.8-0.7,33-2.2V3.4z M531.3,40.8c-2.1-5.8-4-11.2-4-16
	c0-11.8,7.5-19,22.5-21.4V1.3c-10.3,1.5-20.7,2.2-29.3,2.2c-7.5,0-17-0.7-28.4-2.2v2.1c8.9,1.2,16.1,4.8,21.8,10.6
	c5.6,5.7,10.5,14.7,14.9,26.8L531.3,40.8L531.3,40.8z"/>
</svg>
